<?xml version="1.0" standalone="no"?>
<!DOCTYPE svg PUBLIC "-//W3C//DTD SVG 20010904//EN"
 "http://www.w3.org/TR/2001/REC-SVG-20010904/DTD/svg10.dtd">
<svg version="1.0" xmlns="http://www.w3.org/2000/svg"
 width="210.000000pt" height="210.000000pt" viewBox="0 0 210.000000 210.000000"
 preserveAspectRatio="xMidYMid meet">
<metadata>
Created by potrace 1.14, written by Peter Selinger 2001-2017
</metadata>
<g transform="translate(0.000000,210.000000) scale(0.100000,-0.100000)"
fill="#000000" stroke="none">
<path d="M0 1050 l0 -1050 1050 0 1050 0 0 1050 0 1050 -1050 0 -1050 0 0
-1050z m1120 960 c27 -27 25 -44 -5 -69 l-26 -20 15 -59 c21 -81 40 -124 72
-161 46 -55 97 -39 187 59 60 64 65 77 45 110 -27 42 40 81 76 44 24 -23 16
-47 -21 -64 -29 -14 -33 -21 -43 -83 -21 -120 23 -181 101 -143 63 31 102 72
103 108 1 30 4 33 31 33 25 0 30 -4 30 -25 0 -17 -7 -26 -25 -30 -30 -7 -106
-99 -150 -181 l-31 -59 -399 0 -400 0 -21 43 c-23 44 -85 136 -117 174 -10 11
-30 23 -43 25 -18 2 -24 9 -24 28 0 21 5 25 30 25 26 0 30 -4 30 -29 1 -22 13
-40 48 -72 117 -105 193 -44 156 126 -9 40 -15 51 -35 56 -14 4 -29 15 -35 26
-21 39 47 78 79 46 15 -15 16 -50 1 -65 -16 -16 68 -133 115 -162 45 -28 91
-27 120 2 24 24 57 102 77 181 10 41 9 45 -15 69 -27 27 -26 51 2 75 23 18 49
15 72 -8z m-80 -775 l0 -155 -80 0 -80 0 0 70 0 70 -85 0 -85 0 0 -222 0 -223
75 -95 c40 -52 79 -96 85 -98 7 -3 10 34 8 120 l-3 123 -63 3 -63 3 3 82 3 82
143 3 142 3 0 -462 c0 -254 -2 -460 -4 -458 -2 2 -114 147 -250 322 l-246 319
0 334 0 334 250 0 250 0 0 -155z m241 38 c0 -65 0 -142 -1 -170 -1 -29 2 -53
7 -53 4 0 43 35 85 77 l78 78 0 92 0 93 85 0 85 0 0 -123 0 -122 -105 -105
c-58 -58 -105 -109 -105 -115 0 -5 46 -55 101 -111 l102 -102 -103 -134 c-57
-73 -109 -140 -117 -148 -12 -13 -14 5 -12 133 l2 148 -44 45 c-24 24 -47 44
-51 44 -4 0 -8 -117 -8 -259 l0 -259 -76 -99 c-43 -54 -79 -100 -80 -102 -2
-2 -4 291 -4 652 l0 657 80 0 80 0 1 -117z"/>
</g>
</svg>
